# Blender v2.91.2 OBJ File: 'PILLAR.blend'
# www.blender.org
mtllib PILLAR.mtl
o Cube_Cube.001
v -1.000000 -2.384903 -1.000000
v -1.000000 -2.384903 1.000000
v -1.000000 2.384903 1.000000
v -1.000000 2.384903 -1.000000
v 1.000000 -2.384903 -1.000000
v 1.000000 2.384903 -1.000000
v 1.000000 -2.384903 1.000000
v 1.000000 2.384903 1.000000
v -1.476847 2.673531 1.476847
v -1.476847 2.673531 -1.476847
v 1.476847 2.673531 -1.476847
v 1.476847 2.673531 1.476847
v -1.476847 2.906870 1.476847
v -1.389093 2.994624 1.389093
v -1.451145 2.968921 1.451145
v -1.389093 2.994624 -1.389093
v -1.476847 2.906870 -1.476847
v -1.451145 2.968921 -1.451145
v 1.389093 2.994624 -1.389093
v 1.476847 2.906870 -1.476847
v 1.451145 2.968921 -1.451145
v 1.389093 2.994624 1.389093
v 1.476847 2.906870 1.476847
v 1.451145 2.968921 1.451145
v 1.169917 -2.384903 1.456302
v 1.456302 -2.384903 1.169917
v 1.372422 -2.384903 1.372422
v 1.456302 -2.384903 -1.169917
v 1.169917 -2.384903 -1.456302
v 1.372422 -2.384903 -1.372422
v -1.456302 -2.384903 1.169917
v -1.169917 -2.384903 1.456302
v -1.372422 -2.384903 1.372422
v -1.169917 -2.384903 -1.456302
v -1.456302 -2.384903 -1.169917
v -1.372422 -2.384903 -1.372422
v 1.456302 -2.932947 1.169917
v 1.169917 -2.932947 1.456302
v 1.372422 -2.932947 1.372422
v 1.169917 -2.932947 -1.456302
v 1.456302 -2.932947 -1.169917
v 1.372422 -2.932947 -1.372422
v -1.456302 -2.932947 -1.169917
v -1.169917 -2.932947 -1.456302
v -1.372422 -2.932947 -1.372422
v -1.169917 -2.932947 1.456302
v -1.456302 -2.932947 1.169917
v -1.372422 -2.932947 1.372422
v -1.000000 1.291003 -1.000000
v -1.000000 0.925299 -1.000000
v -0.926479 1.108151 -0.926479
v 1.000000 0.925299 -1.000000
v 1.000000 1.291003 -1.000000
v 0.926479 1.108151 -0.926479
v -1.000000 1.291003 1.000000
v -1.000000 0.925299 1.000000
v -0.926479 1.108151 0.926479
v 1.000000 0.925299 1.000000
v 1.000000 1.291003 1.000000
v 0.926479 1.108151 0.926479
v 1.000000 -0.455524 -1.000000
v 1.000000 -0.821228 -1.000000
v 0.926479 -0.638376 -0.926479
v -1.000000 -0.455524 1.000000
v -1.000000 -0.821228 1.000000
v -0.926479 -0.638376 0.926479
v 1.000000 -0.455524 1.000000
v 1.000000 -0.821228 1.000000
v 0.926479 -0.638376 0.926479
v -1.000000 -0.821228 -1.000000
v -1.000000 -0.455524 -1.000000
v -0.926479 -0.638376 -0.926479
vt 0.548498 0.000000
vt 0.548498 0.250000
vt 0.476125 0.250000
vt 0.476125 0.000000
vt 0.375000 0.774582
vt 0.375000 0.975419
vt 0.375000 0.975418
vt 0.375000 0.774581
vt 0.625000 1.000000
vt 0.625000 0.750000
vt 0.625000 0.750000
vt 0.625000 1.000000
vt 0.375000 0.507200
vt 0.375000 0.475418
vt 0.375000 0.274582
vt 0.375000 0.257200
vt 0.375000 0.250000
vt 0.375000 0.250000
vt 0.375000 0.500000
vt 0.375000 0.475418
vt 0.375000 0.274581
vt 0.625000 0.500000
vt 0.625000 0.500000
vt 0.625000 0.250000
vt 0.625000 0.250000
vt 0.625000 0.000000
vt 0.625000 0.000000
vt 0.625000 0.750000
vt 0.625000 1.000000
vt 0.632428 0.507428
vt 0.867573 0.507428
vt 0.867573 0.742573
vt 0.632428 0.742573
vt 0.625000 0.250000
vt 0.625000 0.500000
vt 0.875000 0.502176
vt 0.875000 0.747824
vt 0.625000 0.002175
vt 0.625000 0.247825
vt 0.625000 0.000000
vt 0.627175 0.500000
vt 0.872824 0.500000
vt 0.625000 0.252175
vt 0.625000 0.497825
vt 0.625000 0.747825
vt 0.625000 0.502175
vt 0.872825 0.750000
vt 0.627176 0.750000
vt 0.625000 0.752175
vt 0.625000 0.997825
vt 0.375000 0.024581
vt 0.375000 0.000000
vt 0.375000 0.757200
vt 0.375000 0.725419
vt 0.375000 0.524581
vt 0.375000 0.750000
vt 0.375000 0.000000
vt 0.375000 0.225418
vt 0.375000 0.225418
vt 0.375000 0.024581
vt 0.375000 0.725419
vt 0.375000 0.524581
vt 0.476125 0.500000
vt 0.548498 0.500000
vt 0.548498 0.750000
vt 0.476125 0.750000
vt 0.548498 1.000000
vt 0.476125 1.000000
vt 0.375000 0.750000
vt 0.375000 0.750000
vt 0.375000 0.500000
vt 0.375000 0.500000
vt 0.375000 0.000000
vt 0.375000 1.000000
vt 0.375000 1.000000
vt 0.375000 0.250000
vt 0.375000 0.250000
vt 0.456957 0.500000
vt 0.456957 0.750000
vt 0.567665 0.750000
vt 0.567665 1.000000
vt 0.567665 0.250000
vt 0.567665 0.500000
vt 0.456957 1.000000
vt 0.375000 1.000000
vt 0.456957 0.250000
vt 0.456957 0.000000
vt 0.558082 1.000000
vt 0.558082 0.750000
vt 0.558082 0.500000
vt 0.558082 0.000000
vt 0.558082 0.250000
vt 0.567665 0.000000
vt 0.466541 0.500000
vt 0.466541 0.250000
vt 0.466541 0.750000
vt 0.466541 1.000000
vt 0.466541 0.000000
vn -1.0000 0.0000 0.0000
vn 0.0000 0.0000 1.0000
vn 0.0000 -0.8555 0.5178
vn 0.0000 1.0000 0.0000
vn 0.0000 0.0000 -1.0000
vn 0.5178 -0.8555 0.0000
vn 0.0000 -0.8555 -0.5178
vn -0.5178 -0.8555 0.0000
vn 1.0000 0.0000 0.0000
vn -0.3827 0.9239 0.0000
vn -0.9239 0.3827 0.0000
vn 0.0000 0.9239 -0.3827
vn 0.0000 0.3827 -0.9239
vn 0.3827 0.9239 0.0000
vn 0.9239 0.3827 0.0000
vn 0.0000 0.9239 0.3827
vn 0.0000 0.3827 0.9239
vn 0.3827 0.0000 0.9239
vn 0.9239 0.0000 0.3827
vn 0.3827 0.0000 -0.9239
vn 0.9239 0.0000 -0.3827
vn -0.9239 0.0000 0.3827
vn -0.3827 0.0000 0.9239
vn -0.3827 0.0000 -0.9239
vn -0.9239 0.0000 -0.3827
vn 0.0000 -0.3731 0.9278
vn 0.0000 0.3731 0.9278
vn 0.9278 -0.3731 0.0000
vn 0.9278 0.3731 0.0000
vn -0.9278 0.3731 0.0000
vn -0.9278 -0.3731 0.0000
vn 0.0000 -0.3731 -0.9278
vn 0.0000 0.3731 -0.9278
vn 0.0000 -1.0000 -0.0000
usemtl None
s off
f 56/1/1 50/2/1 71/3/1 64/4/1
f 25/5/2 32/6/2 46/7/2 38/8/2
f 3/9/3 8/10/3 12/11/3 9/12/3
f 30/13/4 29/14/4 34/15/4 36/16/4 35/17/4 1/18/4 5/19/4
f 34/15/5 29/14/5 40/20/5 44/21/5
f 8/10/6 6/22/6 11/23/6 12/11/6
f 6/22/7 4/24/7 10/25/7 11/23/7
f 4/24/8 3/26/8 9/27/8 10/25/8
f 9/12/2 12/11/2 23/28/2 13/29/2
f 19/30/4 16/31/4 14/32/4 22/33/4
f 11/23/5 10/25/5 17/34/5 20/35/5
f 12/11/9 11/23/9 20/35/9 23/28/9
f 14/32/10 16/31/10 18/36/10 15/37/10
f 15/38/11 18/39/11 17/34/11 13/40/11
f 16/31/12 19/30/12 21/41/12 18/42/12
f 18/43/13 21/44/13 20/35/13 17/34/13
f 19/30/14 22/33/14 24/45/14 21/46/14
f 21/46/15 24/45/15 23/28/15 20/35/15
f 22/33/16 14/32/16 15/47/16 24/48/16
f 24/49/17 15/50/17 13/29/17 23/28/17
f 10/25/1 9/27/1 13/40/1 17/34/1
f 31/51/4 33/52/4 32/6/4 25/5/4 27/53/4 26/54/4 28/55/4 30/13/4 5/19/4 7/56/4 2/57/4 1/18/4 35/58/4
f 31/51/1 35/58/1 43/59/1 47/60/1
f 28/55/9 26/54/9 37/61/9 41/62/9
f 61/63/9 52/64/9 58/65/9 67/66/9
f 67/66/2 58/65/2 56/67/2 64/68/2
f 25/5/18 38/8/18 39/69/18 27/70/18
f 27/70/19 39/69/19 37/61/19 26/54/19
f 40/20/20 29/14/20 30/71/20 42/72/20
f 42/72/21 30/71/21 28/55/21 41/62/21
f 31/51/22 47/60/22 48/73/22 33/52/22
f 33/74/23 48/75/23 46/7/23 32/6/23
f 34/15/24 44/21/24 45/76/24 36/77/24
f 36/77/25 45/76/25 43/59/25 35/58/25
f 5/19/9 62/78/9 68/79/9 7/56/9
f 59/80/2 8/10/2 3/9/2 55/81/2
f 71/3/5 50/2/5 52/64/5 61/63/5
f 49/82/5 4/24/5 6/22/5 53/83/5
f 7/56/2 68/79/2 65/84/2 2/85/2
f 1/18/5 70/86/5 62/78/5 5/19/5
f 65/87/1 70/86/1 1/18/1 2/57/1
f 53/83/9 6/22/9 8/10/9 59/80/9
f 59/80/26 55/81/26 57/88/26 60/89/26
f 60/89/27 57/88/27 56/67/27 58/65/27
f 53/83/28 59/80/28 60/89/28 54/90/28
f 54/90/29 60/89/29 58/65/29 52/64/29
f 50/2/30 56/1/30 57/91/30 51/92/30
f 51/92/31 57/91/31 55/93/31 49/82/31
f 49/82/32 53/83/32 54/90/32 51/92/32
f 51/92/33 54/90/33 52/64/33 50/2/33
f 71/3/32 61/63/32 63/94/32 72/95/32
f 72/95/33 63/94/33 62/78/33 70/86/33
f 61/63/28 67/66/28 69/96/28 63/94/28
f 63/94/29 69/96/29 68/79/29 62/78/29
f 67/66/26 64/68/26 66/97/26 69/96/26
f 69/96/27 66/97/27 65/84/27 68/79/27
f 70/86/30 65/87/30 66/98/30 72/95/30
f 72/95/31 66/98/31 64/4/31 71/3/31
f 3/26/1 4/24/1 49/82/1 55/93/1
f 37/61/34 39/69/34 38/8/34 46/7/34 48/73/34 47/60/34 43/59/34 45/76/34 44/21/34 40/20/34 42/72/34 41/62/34
